<svg width="243" height="57" fill="none" xmlns="http://www.w3.org/2000/svg"><g clip-path="url(#clip0)" fill="#C80C0F"><path d="M185.47 32.973a.43.43 0 01-.431.43h-2.491a.674.674 0 01-.582-.404l-3.505-9.598c-.078-.221-.15-.209-.15.026l-.007 9.54a.43.43 0 01-.431.43H175.1a.435.435 0 01-.431-.43l.013-19.907c0-.235.196-.43.432-.43h2.543c.235 0 .497.182.582.404l3.445 9.598c.079.221.144.215.144-.026l.007-9.54a.43.43 0 01.431-.43h2.773c.235 0 .431.196.431.43v19.907zm6.545-7.74c-.046.235.111.424.353.424h1.085c.236 0 .399-.189.353-.424l-.81-4.166c-.046-.235-.118-.235-.164 0l-.817 4.166zm6.963 7.76c.052.234-.098.423-.34.423h-2.798a.55.55 0 01-.517-.424l-.68-3.449a.543.543 0 00-.516-.424h-2.426a.549.549 0 00-.516.424l-.68 3.45a.544.544 0 01-.517.423h-2.798c-.236 0-.393-.189-.34-.424l4.472-19.925a.565.565 0 01.529-.424h2.145c.235 0 .477.189.53.423l4.452 19.926zm5.414-.007c0 .235-.196.43-.432.43h-2.772a.43.43 0 01-.431-.43l.006-16.444a.43.43 0 00-.431-.43h-2.459a.435.435 0 01-.431-.43v-2.596c0-.235.196-.43.431-.43l9.422.006c.235 0 .431.196.431.43v2.596c0 .234-.196.43-.431.43h-2.459a.435.435 0 00-.431.43l-.013 16.438zm38.601.019c0 .235-.196.43-.431.43l-8.467-.006a.435.435 0 01-.432-.43l.013-19.906c0-.235.197-.43.432-.43l8.46.006a.43.43 0 01.432.43v2.595a.43.43 0 01-.432.43h-4.825a.435.435 0 00-.431.43v4.252c0 .241.196.43.431.43h4.093c.236 0 .432.196.432.43v2.596c0 .235-.196.43-.432.43h-4.093a.435.435 0 00-.431.43v4.245c0 .235.196.43.431.43h4.825c.236 0 .432.196.432.43l-.007 2.778zm-18.248-16.457c0-.234.196-.43.432-.43h.242c.065 0 .144.007.229.013v-.013h.13c1.759 0 2.073.717 2.066 2.739 0 1.786-.3 2.49-1.268 2.673l-1.412.058a.435.435 0 01-.432-.43l.013-4.61zm7.441 16.477l-2.89-8.522c-.066-.189-.026-.437.078-.62 1.432-1.036 2.112-2.62 2.112-4.961 0-4.147-1.831-6.253-5.453-6.26h-4.498a.435.435 0 00-.432.43L221.097 33c0 .241.196.43.431.43h2.773a.435.435 0 00.431-.43l.007-7.68a.43.43 0 01.431-.431h.19a.62.62 0 01.562.41l2.413 7.72a.62.62 0 00.562.411h2.988c.248 0 .379-.182.301-.404zm-13.338-20.35h-2.773a.435.435 0 00-.431.43l-.007 14.273v.477c0 .234-.052.619-.117.847 0 0-.373 1.285-1.275 1.285-.903 0-1.275-1.285-1.275-1.285a3.648 3.648 0 01-.118-.848v-.476l.007-14.272a.435.435 0 00-.432-.43h-2.772a.435.435 0 00-.432.43l-.006 14.266v1.186c0 2.785 2.255 5.047 5.028 5.047a5.046 5.046 0 005.034-5.04v-1.187l.007-14.266a.442.442 0 00-.438-.437zm-113.602 43.79a.43.43 0 01-.432.43l-8.46-.006a.43.43 0 01-.432-.43l.013-19.907c0-.234.197-.43.432-.43l8.46.007c.236 0 .432.195.432.43v2.595c0 .235-.196.43-.432.43h-4.825a.435.435 0 00-.431.43v4.252c0 .241.196.43.431.43h4.093c.236 0 .432.196.432.43v2.596a.43.43 0 01-.432.43h-4.093a.435.435 0 00-.431.43v4.245c0 .235.196.43.431.43h4.825c.236 0 .432.196.432.43l-.013 2.778zm11.782 0c0 .235-.196.43-.432.43h-2.491a.676.676 0 01-.582-.404l-3.504-9.597c-.078-.222-.15-.209-.15.026l-.007 9.545c0 .235-.196.43-.431.43h-2.773a.435.435 0 01-.431-.43l.006-19.9a.43.43 0 01.432-.43h2.543c.236 0 .497.183.582.404l3.446 9.598c.078.222.144.209.144-.026l.006-9.539c0-.235.196-.43.432-.43h2.772c.235 0 .431.195.431.43l.007 19.893zm8.245.013a.552.552 0 01-.523.424h-2.295a.55.55 0 01-.517-.424l-4.06-19.925c-.046-.235.111-.424.346-.424h2.969c.235 0 .464.189.503.424l1.844 11.312c.039.235.098.235.137 0l1.877-11.313a.523.523 0 01.503-.423h2.969c.235 0 .392.189.346.424l-4.099 19.925zm8.774 0a.43.43 0 01-.432.43h-2.772a.435.435 0 01-.431-.43l.006-19.906a.43.43 0 01.432-.43h2.772c.235 0 .431.195.431.43l-.006 19.906zm19.065-17.037c-.98 0-1.562.613-1.562 1.643l-.007 10.563c0 1.03.582 1.643 1.563 1.643s1.562-.613 1.562-1.643l.007-10.563c0-1.03-.582-1.643-1.563-1.643zm-.006 17.474c-2.583 0-5.198-1.812-5.198-5.275l.006-10.563c0-3.462 2.622-5.268 5.205-5.268s5.198 1.813 5.198 5.269l-.007 10.562c-.006 3.47-2.622 5.282-5.204 5.275zm17.653-.423c0 .234-.196.43-.431.43h-2.491a.674.674 0 01-.582-.404l-3.505-9.598c-.078-.222-.15-.209-.15.026l-.007 9.546c0 .234-.196.43-.431.43h-2.772a.43.43 0 01-.432-.43l.013-19.907a.43.43 0 01.432-.43h2.543c.235 0 .497.182.582.404l3.452 9.598c.079.222.144.209.144-.026l.006-9.54c0-.234.197-.43.432-.43h2.772c.236 0 .432.196.432.43l-.007 19.9zm12.514.006c0 .235-.196.43-.431.43h-2.491a.674.674 0 01-.582-.404l-3.505-9.598c-.078-.221-.15-.208-.15.026l-.007 9.54c0 .234-.196.43-.431.43h-2.772a.43.43 0 01-.432-.43l.013-19.907c0-.235.196-.43.432-.43h2.543c.235 0 .497.182.582.404l3.446 9.598c.078.222.144.209.144-.026l.006-9.54a.43.43 0 01.432-.43h2.772c.235 0 .431.196.431.43v19.907zm11.154.007a.43.43 0 01-.431.43l-8.467-.007a.435.435 0 01-.432-.43l.007-19.906c0-.235.196-.43.431-.43l8.461.006c.235 0 .431.195.431.43v2.595c0 .235-.196.43-.431.43h-4.825a.435.435 0 00-.432.43v4.252c0 .241.196.43.432.43h4.093c.235 0 .431.196.431.43v2.596a.43.43 0 01-.431.43h-4.093a.435.435 0 00-.432.43v4.245c0 .235.196.43.432.43h4.825c.235 0 .431.196.431.43v2.779zm14.823.006c0 .235-.197.43-.432.43h-2.772a.435.435 0 01-.432-.43l.007-9.487c0-.235-.059-.248-.137-.02l-1.975 5.967a.637.637 0 01-.569.41h-1.124a.644.644 0 01-.569-.41l-1.942-5.94c-.072-.229-.131-.216-.137.02l-.007 9.466c0 .235-.196.43-.431.43h-2.773a.435.435 0 01-.431-.43l.013-19.906c0-.234.196-.43.431-.43h2.55c.236 0 .497.182.576.41l3.158 9.077c.078.221.209.221.281 0l3.145-9.076a.649.649 0 01.575-.405h2.576c.236 0 .432.196.432.43l-.013 19.894zm11.271.006a.43.43 0 01-.431.43l-8.467-.006a.435.435 0 01-.432-.43l.007-19.906c0-.235.196-.43.431-.43l8.461.006c.235 0 .431.196.431.43v2.595c0 .235-.196.43-.431.43h-4.825a.435.435 0 00-.432.43v4.252c0 .241.196.43.432.43h4.093c.235 0 .431.196.431.43v2.596a.43.43 0 01-.431.43h-4.093a.435.435 0 00-.432.43v4.245c0 .235.196.43.432.43h4.825c.235 0 .431.196.431.43v2.779zm11.776.007a.43.43 0 01-.432.43h-2.484a.674.674 0 01-.582-.404l-3.498-9.598c-.078-.221-.15-.208-.15.026l-.007 9.54c0 .234-.196.43-.431.43h-2.773a.435.435 0 01-.431-.43l.006-19.907c0-.234.196-.43.432-.43h2.543c.236 0 .497.182.576.404l3.445 9.598c.079.222.144.209.144-.026l.007-9.54a.43.43 0 01.431-.43h2.772c.236 0 .432.196.432.43v19.907zm7.355.006c0 .235-.196.43-.431.43h-2.772a.43.43 0 01-.432-.43l.007-16.444a.435.435 0 00-.432-.43h-2.458a.435.435 0 01-.432-.43V36.63c0-.235.196-.43.432-.43l9.421.006c.236 0 .432.196.432.43v2.595c0 .235-.196.43-.432.43h-2.458a.435.435 0 00-.432.431l-.013 16.438zM138.957 40.034c0-.234.196-.43.432-.43h.242c.065 0 .143.007.228.013v-.013h.138c1.759 0 2.066.717 2.066 2.739 0 1.786-.301 2.49-1.269 2.673l-1.405.059a.43.43 0 01-.432-.43v-4.61zm7.441 16.47l-2.89-8.521c-.066-.19-.026-.437.078-.62 1.432-1.037 2.112-2.621 2.112-4.962 0-4.147-1.831-6.253-5.446-6.253h-4.499a.435.435 0 00-.431.43l-.013 19.907c0 .241.196.43.431.43h2.773a.435.435 0 00.431-.43l.007-7.68a.43.43 0 01.431-.431h.19c.235 0 .49.182.562.41l2.413 7.72a.62.62 0 00.562.411h2.994c.242 0 .373-.182.295-.41zm-46.834-23.57a.43.43 0 01-.431.43H96.36a.435.435 0 01-.432-.43l.007-19.906a.43.43 0 01.431-.43l8.46.006c.236 0 .432.195.432.43v2.595c0 .235-.196.43-.432.43h-4.825a.435.435 0 00-.431.43v4.447c0 .242.196.43.431.43h4.093c.236 0 .432.197.432.431v2.595a.43.43 0 01-.432.43h-4.093a.43.43 0 00-.431.431l-.007 7.68zM124.56 25.2c-.046.236.111.425.353.425h1.085c.236 0 .393-.19.353-.424l-.817-4.173c-.046-.235-.118-.235-.163 0l-.811 4.173zm6.963 7.76c.052.235-.098.424-.34.424h-2.798a.55.55 0 01-.517-.424l-.68-3.45a.543.543 0 00-.516-.423h-2.426a.545.545 0 00-.517.424l-.68 3.449a.542.542 0 01-.516.424h-2.798c-.236 0-.393-.19-.34-.424l4.472-19.926a.571.571 0 01.529-.424h2.145c.235 0 .477.19.523.424l4.459 19.926zm12.207-.007a.43.43 0 01-.432.43h-2.491a.676.676 0 01-.582-.404l-3.504-9.597c-.079-.222-.15-.209-.15.026l-.007 9.545a.43.43 0 01-.432.43h-2.772a.435.435 0 01-.431-.43l.006-19.906c0-.235.196-.43.432-.43h2.543c.236 0 .497.182.582.404l3.446 9.598c.078.221.144.208.144-.026l.006-9.54a.43.43 0 01.432-.43h2.772c.235 0 .431.196.431.43l.007 19.9zm22.799.013a.43.43 0 01-.432.43l-8.467-.006a.435.435 0 01-.431-.43l.006-19.907a.43.43 0 01.432-.43l8.46.007c.236 0 .432.195.432.43v2.595c0 .235-.196.43-.432.43h-4.825a.435.435 0 00-.431.43v4.252c0 .241.196.43.431.43h4.093c.235 0 .432.196.432.43v2.596c0 .241-.197.43-.432.43h-4.093a.435.435 0 00-.431.43v4.245c0 .235.196.43.431.43h4.825c.236 0 .432.196.432.43v2.778zm-55.699-16.47c0-.234.196-.43.431-.43h.249c.065 0 .143.006.228.013v-.013h.131c1.759 0 2.073.717 2.066 2.738 0 1.787-.301 2.491-1.268 2.674l-1.412.058a.435.435 0 01-.432-.43l.007-4.61zm7.447 16.47l-2.89-8.522c-.066-.189-.026-.436.078-.619 1.432-1.037 2.112-2.621 2.112-4.962 0-4.147-1.831-6.253-5.453-6.26h-4.498a.435.435 0 00-.432.431l-.006 19.906c0 .242.196.43.431.43h2.772a.435.435 0 00.432-.43l.007-7.68a.43.43 0 01.431-.43h.19c.235 0 .49.182.562.41l2.413 7.72c.071.228.326.41.562.41h2.988c.242.007.373-.175.301-.404zm32.272-20.682c-2.929 0-5.06 2.093-5.06 4.988v.43l-.007 10.152v.43c0 4.735 3.91 5.106 5.113 5.106 2.727 0 4.95-2.25 4.95-5.014v-1.18a.431.431 0 00-.432-.43h-2.772a.435.435 0 00-.432.43v.932c0 1.487-.994 1.643-1.425 1.643-.589 0-1.367-.176-1.367-1.669v-.43l.007-9.363v-.444c0-1.42.379-1.949 1.393-1.949.954 0 1.392.88 1.392 1.702v.899c0 .242.196.43.432.43h2.772a.43.43 0 00.432-.43V17.45c.006-2.994-2.093-5.158-4.996-5.165zM73.176 52.768c-.569-1.428-1.55-2.64-3.223-1.864-.066.032-.23.163-.23.482-.235-.77-.836-1.187-2.013-1.037-.15.02-.791.58-.987 1.044-.262-.418-.706-.691-1.033-1.122-.576-.763-1.099 1.891-1.099 2.015 0 0-.379 2.243-.307 3.827.078 1.585 2.269-1.91 2.596-3.364.065-.287.078-.522.059-.73.353.228.902.352 1.105 1.278.261 1.173.431 2.216.248 2.47-.183.248-.824 1.26-.052 1.011.765-.247 1.085-.84 1.464-2.992.13-.724.177-1.376.118-1.917.065.182.15.384.3.626.713 1.18 1.014 2.412.877 3.044-.144.633-.242 1.454.53 1.018.764-.444 2.222-2.36 1.647-3.789zm-55.13.489c.53-1.284 1.418-2.36 2.896-1.63.059.026.196.15.196.437.222-.69.765-1.056 1.811-.906.13.02.693.535.863.958.242-.371.641-.612.942-.997.523-.685.948 1.721.941 1.839 0 0 .301 2.034.21 3.462-.092 1.428-1.988-1.767-2.256-3.084a2.156 2.156 0 01-.04-.659c-.313.202-.804.3-1.006 1.135-.249 1.056-.419 2.001-.262 2.23.157.228.706 1.154.033.919-.68-.235-.955-.782-1.255-2.732-.105-.659-.138-1.245-.072-1.734-.06.163-.144.339-.275.56-.647 1.05-.942 2.165-.824 2.739.118.574.19 1.317-.49.913-.674-.411-1.942-2.165-1.412-3.45z"/><path d="M81.525 51.412l4.453-3.508-4.812-.593 9.807-7.603-10.487 1.31s8.794-6.995 8.964-7.047l-11.18 3.547s2.216-2.172 2.386-2.563c.17-.391 7.551-6.827 7.551-6.827l-9.539 2.439s1.32-2.921 1.83-3.254c.51-.332 1.831-3.012 1.831-3.012l-13.266 3.28s7.598-5.464 7.997-5.797c.398-.332 3.08-4.297 3.08-4.297l-13.038 3.306s1.026-1.506 1.994-2.79c.968-1.285 3.256-5.53 3.256-5.53l-9.435 3.678s1.72-3.189 2.119-3.743c.399-.56 3.321-6.038 3.321-6.038l-2.83 1.213-7.762 5.542s.308-2.634.648-3.416c.346-.783 2.484-6.997 2.484-6.997L53 12.128s-.098-1.52-.098-1.97c.006-.45.81-8.358.81-8.358l-6.002 9.943s-.261-2.19-.307-3.371C47.356 7.192 47.141 0 47.141 0s-3.021 3.847-3.479 4.74c-.457.893-2.53 5.875-2.53 5.875l-.778-.848L37.399.535s-.484 3.305-1.06 4.368c-.575 1.063-3.373 6.833-3.373 6.833s-2.85-3.188-2.903-3.58c-.052-.39-2.17-2.77-2.17-2.77l-2.655 11.671s-1.779-1.095-2.335-1.61c-.555-.51-2.347-2.322-2.844-3.17-.497-.847-2.622-2.49-2.622-2.49l1.648 10.628s-3.08-1.598-3.864-2.002c-.785-.398-5.309-.92-5.309-.92l6.689 10.427-12.71-1.63 7.191 8.091L.333 32.543l9.056 7.772s-2.125-.04-2.85-.098C5.805 40.152 0 40.38 0 40.38s4.753 3.73 4.923 3.788c.17.059 5.113 3.189 5.113 3.189s-3.073 1.447-3.243 1.506c-.17.052 8.54 4.988 10.396 4.277.674-2.028 1.765-3.847 3.498-2.68.072.052.248.255.242.737.281-1.167.955-1.793 2.249-1.539.163.033.863.9 1.066 1.617.3-.632.797-1.036 1.17-1.688.66-1.155 1.164 2.907 1.164 3.103 0 0 .006.046.013.124.38 0 .608.007.64.02.158.052.687.084 1.511.117-1-1.604-2-3.358-2.105-4.127-.21-1.578.287-7.075.405-7.407.118-.34 1.38-3.358 1.38-3.358l6.525 2.927 10.284 5.516 5.368-2.895 4.754-2.556h-.007l7.199-3.357s1.288 7.198 1.497 8.997c.111.972.085 2.589.02 3.952.248-1.122.7-2.608 1.183-1.858.412.632.968 1.03 1.295 1.643.248-.678 1.052-1.5 1.242-1.533 1.478-.221 2.23.391 2.524 1.52.006-.463.202-.659.287-.705 2.1-1.14 3.322.633 4.04 2.726.027.072.04.143.053.209 4.904-.079 6.84-1.233 6.84-1.233z"/><path d="M39.556 42.401c-.248 1.526-1.621 2.57-3.06 2.334-1.438-.234-2.406-1.662-2.15-3.188.248-1.526 1.62-2.569 3.06-2.334 1.438.234 2.399 1.662 2.15 3.188zm15.724.131c-.039 1.545-1.248 2.764-2.706 2.732-1.458-.033-2.609-1.311-2.576-2.856.039-1.546 1.249-2.765 2.707-2.732 1.458.032 2.615 1.31 2.576 2.856zm-13.939 6.389s3.237-.228 4.42-.136c1.183.084 3.217.436 3.217.436s-1.125 3.45-2.517 4.512c-1.393 1.063-2.76-.202-2.76-.202s-3.046-3.025-2.36-4.61z"/></g><defs><clipPath id="clip0"><path fill="#fff" d="M0 0h243v57H0z"/></clipPath></defs></svg>