<?xml version="1.0" encoding="UTF-8"?>
<svg id="Calque_2" data-name="Calque 2" xmlns="http://www.w3.org/2000/svg" viewBox="0 0 365.42 336.83">
  <g id="Calque_1-2" data-name="Calque 1">
    <path d="m365.42,168.66c0,92.94-75.73,168.17-168.66,168.17h-31.37l38.76-67.14c53.05-3.74,94.4-47.44,94.4-101.03,0-56.55-45.24-101.79-101.79-101.79h-18.19c.03,50.42.05,69.94.08,120.36-11.2,19.4-22.4,38.81-33.6,58.21-11.2-19.44-22.4-38.87-33.59-58.31.08-72.68.16-114.46.25-187.14h85.07c92.94,0,168.66,75.73,168.66,168.66Zm-279.33,101.3h-19.21V0H0v336.83h124.7c-12.87-22.29-25.74-44.58-38.61-66.88Zm97.57-55.95h32.43c-12.92,22.3-25.83,44.6-38.75,66.89l-32.29,55.93-32.29-55.93c-12.91-22.3-25.82-44.6-38.73-66.89h32.48c12.85,22.3,25.69,44.6,38.54,66.89,12.87-22.3,25.74-44.6,38.62-66.89Z"/>
  </g>
</svg>